<svg xmlns="http://www.w3.org/2000/svg" width="22" height="22" viewBox="0 0 22 22"><defs><style>.a{fill:none;}.b{fill:#fff;}</style></defs><g transform="translate(-0.423)"><rect class="a" width="22" height="22" transform="translate(0.423)"/><g transform="translate(1.462 4.035)"><path class="b" d="M2.92,14.033H18.167L13.58,9.446A.867.867,0,1,1,14.8,8.219l6.07,6.07a.616.616,0,0,1,.108.13.559.559,0,0,1,.039.069c0,.026.03.052.043.082l.026.087a.473.473,0,0,1,0,.074.91.91,0,0,1,0,.342.668.668,0,0,1,0,.074l-.026.087c0,.03-.03.056-.043.082a.516.516,0,0,1-.039.065.763.763,0,0,1-.1.13h0l-6.07,6.07a.868.868,0,0,1-1.227-1.227l4.587-4.587H2.92a.867.867,0,1,1,0-1.734Z" transform="translate(-2.053 -7.936)"/></g></g></svg>