<svg xmlns="http://www.w3.org/2000/svg" width="13.818" height="16" viewBox="0 0 13.818 16"><defs><style>.a{fill:#36444f;}</style></defs><g transform="translate(-1066.78 -5617)"><path class="a" d="M40.166,27.847c1.733,0,3.594-2.3,3.594-4.669a3.606,3.606,0,1,0-7.188,0C36.572,25.544,38.376,27.847,40.166,27.847Z" transform="translate(1033.523 5597.721)"/><path class="a" d="M37.388,58.705A6.762,6.762,0,0,0,36.047,56.8a3.637,3.637,0,0,0-3.014-.948c-.783.172-.82.623-2.075.623s-1.292-.451-2.076-.623a3.637,3.637,0,0,0-3.014.948,6.755,6.755,0,0,0-1.341,1.908c-.218.432-.672,1.691-.39,2.233.356.686,1.224.969,3.608,1.261a29.607,29.607,0,0,0,6.423,0c2.384-.291,3.251-.575,3.608-1.261C38.06,60.4,37.606,59.137,37.388,58.705Z" transform="translate(1042.731 5570.626)"/></g></svg>