<?xml version="1.0" standalone="no"?>
<!DOCTYPE svg PUBLIC "-//W3C//DTD SVG 1.1//EN" "http://www.w3.org/Graphics/SVG/1.1/DTD/svg11.dtd" >
<svg xmlns="http://www.w3.org/2000/svg" xmlns:xlink="http://www.w3.org/1999/xlink" version="1.1">
<metadata></metadata>
<defs>
<font id="martel_sansbold" horiz-adv-x="1241" >
<font-face units-per-em="2048" ascent="1638" descent="-410" />
<missing-glyph horiz-adv-x="512" />
<glyph unicode="&#xfb01;" horiz-adv-x="1505" d="M74 0zM74 934v115l174 59v92q0 217 105.5 333t318.5 116q74 0 178 -17l-23 -194q-68 10 -116 10q-100 0 -146.5 -63.5t-46.5 -188.5v-68h328v-194h-328v-934h-270v934h-174zM1024 1536q0 66 47 113t112 47q68 0 115 -47t47 -113t-47 -113t-115 -47q-65 0 -112 47t-47 113 zM1050 0v1128h271v-1128h-271z" />
<glyph unicode="&#xfb02;" horiz-adv-x="1492" d="M74 0zM74 934v115l174 59v92q0 217 105.5 333t318.5 116q74 0 178 -17l-23 -194q-68 10 -116 10q-100 0 -146.5 -63.5t-46.5 -188.5v-68h328v-194h-328v-934h-270v934h-174zM1044 0v1638h271v-1638h-271z" />
<glyph horiz-adv-x="0" />
<glyph unicode="&#xd;" horiz-adv-x="794" />
<glyph unicode=" "  horiz-adv-x="512" />
<glyph unicode="&#x09;" horiz-adv-x="512" />
<glyph unicode="&#xa0;" horiz-adv-x="512" />
<glyph unicode="!" horiz-adv-x="645" d="M154 154q0 72 50 121t120 49q72 0 121 -49.5t49 -120.5q0 -70 -50.5 -119t-119.5 -49q-70 0 -120 49t-50 119zM168 1393h291l-21 -957h-229z" />
<glyph unicode="&#x22;" horiz-adv-x="1144" d="M188 866zM188 1556h291l-39 -690h-207zM663 1556h291l-39 -690h-207z" />
<glyph unicode="#" horiz-adv-x="1527" d="M45 346l61 201h213l93 299h-211l61 201h211l107 346h249l-106 -346h299l106 346h250l-106 -346h211l-62 -201h-211l-92 -299h209l-61 -201h-209l-107 -346h-250l107 346h-299l-107 -346h-249l106 346h-213zM569 547h299l93 299h-299z" />
<glyph unicode="$" d="M109 133l67 195q100 -53 197.5 -79t206.5 -26q119 0 198.5 46t79.5 128t-72.5 126t-220.5 91q-131 43 -213 82t-139 110t-57 179q0 154 101 250t280 125v278h241v-274q178 -23 316 -107l-68 -190q-174 98 -342 98q-113 0 -184.5 -43t-71.5 -121q0 -51 37 -86.5t92 -60.5 t154 -57q133 -45 217 -85t143 -113t59 -185q0 -146 -92 -243t-260 -132v-291h-241v272q-254 8 -428 113z" />
<glyph unicode="%" horiz-adv-x="2072" d="M33 0zM33 969q0 190 100 314t291 124q190 0 292 -124q101 -124 101 -312t-101 -313q-101 -124 -292 -123q-189 -1 -290 122t-101 312zM274 971q0 -135 35 -201t113 -65q80 -1 116 65t35 201q0 135 -35 200q-36 66 -116 66q-78 0 -113 -66t-35 -200zM530 39l820 1417 l194 -117l-819 -1417zM1255 412q0 190 101 314q100 124 291 124q190 0 291 -124t102 -312q0 -188 -102 -313q-101 -124 -291 -124q-189 0 -290 123t-102 312zM1497 414q0 -135 35 -201t113 -66q79 0 115 66t36 201t-36 200q-36 66 -115 66q-78 0 -113 -66t-35 -200z" />
<glyph unicode="&#x26;" horiz-adv-x="1495" d="M47 358q0 137 77 244t236 184q-74 86 -104.5 145.5t-30.5 135.5q0 150 103.5 250t298.5 100q125 0 213 -42t133 -112.5t45 -154.5q0 -125 -69.5 -216t-223.5 -167l246 -272q109 180 174 430l254 -29q-37 -156 -108.5 -302t-168.5 -265q53 -49 102.5 -74t100.5 -25 q49 0 92 13l47 -193q-64 -24 -168 -24q-96 0 -170.5 31.5t-164.5 111.5q-197 -154 -418 -154q-156 0 -267.5 50.5t-170 137.5t-58.5 197zM326 381q0 -86 64.5 -146.5t178.5 -60.5q135 0 252 98l-323 359q-94 -61 -133 -123t-39 -127zM492 1081q0 -57 21.5 -102t74.5 -105 q90 49 128 100.5t38 119.5q0 49 -34 86t-95 37q-66 0 -99.5 -39t-33.5 -97z" />
<glyph unicode="'" horiz-adv-x="667" d="M188 1556h291l-39 -690h-207z" />
<glyph unicode="(" horiz-adv-x="686" d="M115 602q0 268 98 490.5t252 369.5l156 -129q-100 -117 -167 -317.5t-67 -413.5q0 -219 66.5 -415.5t167.5 -315.5l-156 -129q-154 147 -252 369.5t-98 490.5z" />
<glyph unicode=")" horiz-adv-x="686" d="M66 -129q100 117 166.5 317.5t66.5 413.5q0 219 -65.5 415.5t-165.5 315.5l155 129q152 -147 250 -369.5t98 -490.5t-98 -490.5t-250 -369.5z" />
<glyph unicode="*" horiz-adv-x="1069" d="M72 967l73 229l320 -158l-53 355h243l-51 -351l316 154l75 -229l-362 -60l266 -252l-207 -143l-160 315l-155 -315l-207 143l264 254z" />
<glyph unicode="+" d="M66 500v194h452v451h209v-451h447v-194h-447v-465h-209v465h-452z" />
<glyph unicode="," horiz-adv-x="645" d="M88 -240q61 45 91 117t30 160q0 109 -45 239l280 39q29 -106 29 -206q0 -307 -297 -463z" />
<glyph unicode="-" horiz-adv-x="577" d="M41 481v195h496v-195h-496z" />
<glyph unicode="." horiz-adv-x="647" d="M154 154q0 72 50 121t120 49q72 0 121 -49.5t49 -120.5q0 -70 -50.5 -119t-119.5 -49q-70 0 -120 49t-50 119z" />
<glyph unicode="/" horiz-adv-x="833" d="M-16 -483l587 1933h277l-590 -1933h-274z" />
<glyph unicode="0" d="M78 709q0 203 58.5 362.5t180 252.5t304.5 93q182 0 304 -93t180 -253t58 -362q0 -209 -58 -375t-180 -263.5t-304 -97.5q-183 0 -304.5 97.5t-180 263.5t-58.5 375zM356 709q0 -231 63.5 -381t201.5 -150q137 0 200.5 149.5t63.5 381.5q0 219 -63.5 361t-200.5 142 t-201 -142t-64 -361z" />
<glyph unicode="1" d="M219 0v199h318v958l-256 -67l-56 190l357 113h233v-1194h318v-199h-914z" />
<glyph unicode="2" d="M82 1229q199 186 477 186q139 0 251 -49t176.5 -140t64.5 -212q0 -152 -90.5 -308.5t-288.5 -338.5l-172 -162v-4h630v-201h-1013v152l342 331q319 305 319 506q0 104 -67.5 163.5t-188.5 59.5q-98 0 -186 -39.5t-184 -123.5z" />
<glyph unicode="3" d="M76 98l67 189q94 -59 190.5 -87t209.5 -28q135 0 213 62.5t78 164.5q0 98 -67 158.5t-185 60.5q-100 0 -217 -32l-23 198q158 39 239 68t129 79t48 134q0 63 -49.5 104t-133.5 41q-188 0 -387 -145l-71 180q193 168 473 168q201 0 322.5 -92t121.5 -246q0 -203 -229 -319 q135 -33 220 -123t85 -217q0 -123 -67.5 -225.5t-195.5 -163t-304 -60.5q-297 0 -467 131z" />
<glyph unicode="4" d="M47 336v158l672 899h264v-856h229v-201h-229v-336h-278v336h-658zM315 537h390v235l6 315l-211 -305z" />
<glyph unicode="5" d="M104 98l68 189q92 -59 184.5 -87t198.5 -28q147 0 227 68.5t80 187.5q0 113 -69.5 176.5t-210.5 63.5q-147 0 -346 -72l-50 33l64 764h848v-203h-600l-31 -332q82 14 141 14q166 0 286 -55t182.5 -152.5t62.5 -222.5q0 -131 -70 -239.5t-202 -172t-312 -63.5 q-285 0 -451 131z" />
<glyph unicode="6" d="M94 541q0 238 105.5 421t300 298.5t458.5 156.5l46 -194q-242 -57 -385.5 -151.5t-202.5 -264.5q121 66 254 65q147 0 255.5 -63.5t165 -163.5t56.5 -213q0 -123 -63.5 -229.5t-182.5 -170t-280 -63.5q-240 0 -383.5 145.5t-143.5 426.5zM373 512q0 -166 66.5 -254 t181.5 -88q120 0 183.5 70.5t63.5 179.5q0 106 -60 178t-165 72q-160 0 -270 -125v-33z" />
<glyph unicode="7" d="M80 1192v201h1081v-166l-657 -1227h-320l688 1188v4h-792z" />
<glyph unicode="8" d="M98 346q0 227 258 363q-106 55 -161.5 130.5t-55.5 182.5q0 111 54.5 200t163 142t266.5 53q156 0 263 -50t161.5 -131t54.5 -175q0 -109 -60.5 -187.5t-183.5 -138.5q135 -63 210 -148t75 -212q0 -113 -56.5 -204t-173 -144.5t-290.5 -53.5t-292 52.5t-175.5 137.5 t-57.5 183zM377 360q0 -76 61.5 -131t184.5 -55q122 0 181.5 54.5t59.5 133.5q0 92 -69.5 145.5t-208.5 106.5q-100 -41 -154.5 -105.5t-54.5 -148.5zM418 1036q0 -78 61.5 -129t175.5 -94q168 86 168 234q0 72 -50 121t-150 49q-101 0 -153 -52.5t-52 -128.5z" />
<glyph unicode="9" d="M94 954q0 123 63.5 229.5t182.5 170t281 63.5q239 0 382.5 -145.5t143.5 -425.5q0 -238 -105.5 -421t-300 -299t-458.5 -157l-45 195q242 57 385 152.5t202 265.5q-121 -66 -252 -66q-147 0 -255.5 62.5t-166 164t-57.5 211.5zM373 967q0 -106 60.5 -178t166.5 -72 q157 0 268 125v32q0 166 -66.5 254.5t-180.5 88.5q-121 0 -184.5 -71t-63.5 -179z" />
<glyph unicode=":" horiz-adv-x="645" d="M154 154q0 72 50 121t120 49q72 0 121 -49.5t49 -120.5q0 -70 -50.5 -119t-119.5 -49q-70 0 -120 49t-50 119zM154 942q0 70 50 120t120 50t120 -50t50 -120t-49.5 -120t-120.5 -50q-70 0 -120 50t-50 120z" />
<glyph unicode=";" horiz-adv-x="645" d="M88 -240q121 90 121 275q0 104 -45 233l280 39q29 -115 29 -203q0 -299 -297 -458zM154 942q0 70 50 120t120 50t120 -50t50 -120t-49.5 -120t-120.5 -50q-70 0 -120 50t-50 120z" />
<glyph unicode="&#x3c;" d="M66 496v186l1108 446v-208l-873 -330l873 -330v-209z" />
<glyph unicode="=" d="M66 268v195h1108v-195h-1108zM66 731v195h1108v-195h-1108z" />
<glyph unicode="&#x3e;" d="M66 51v209l872 330l-872 330v208l1108 -446v-186z" />
<glyph unicode="?" horiz-adv-x="1026" d="M143 1192v203q395 0 571.5 -106.5t176.5 -274.5q0 -145 -109.5 -240.5t-310.5 -155.5l-10 -182h-193l-16 365q197 33 279.5 78t82.5 137q0 78 -101 127t-370 49zM197 154q0 72 50 121t120 49q72 0 121 -49.5t49 -120.5q0 -70 -50.5 -119t-119.5 -49q-70 0 -120 49 t-50 119z" />
<glyph unicode="@" horiz-adv-x="1851" d="M96 530q0 262 122 448.5t323.5 282t439.5 95.5q236 0 412 -91t269 -248t93 -345q0 -178 -69.5 -306t-179 -192.5t-226.5 -64.5q-152 0 -215 110q-133 -113 -254 -113q-94 0 -155.5 61.5t-61.5 158.5q0 84 44 141t138 101t262 91v19q0 61 -23.5 100t-88.5 39 q-63 0 -127 -28.5t-144 -100.5l-55 160q72 63 163 105t195 42q154 0 220.5 -82t66.5 -251v-300q0 -41 15.5 -59t48.5 -18q49 0 97 44t80 133t32 212q0 139 -67 250.5t-187.5 175t-280.5 63.5q-186 0 -333.5 -72.5t-231.5 -216t-84 -346.5q0 -197 81 -336t218 -209.5 t305 -70.5q123 0 224.5 29.5t195.5 89.5l80 -166q-113 -72 -236 -109t-266 -37q-217 0 -409.5 92.5t-311.5 275.5t-119 443zM801 346q-1 -61 71 -61t166 80v139q-137 -43 -187 -80t-50 -78z" />
<glyph unicode="A" horiz-adv-x="1390" d="M25 0l536 1411h266l539 -1411h-283l-131 377h-516l-131 -377h-280zM504 573h379l-189 545z" />
<glyph unicode="B" horiz-adv-x="1355" d="M207 0v1393h512q240 0 363.5 -88t123.5 -261q0 -111 -65.5 -193.5t-188.5 -115.5q154 -30 235 -124.5t81 -229.5q0 -182 -140.5 -281.5t-408.5 -99.5h-512zM485 199h234q131 0 200.5 55t69.5 164q0 217 -270 217h-234v-436zM485 834h234q100 0 154.5 46t54.5 136 q0 94 -53.5 136t-155.5 42h-234v-360z" />
<glyph unicode="C" horiz-adv-x="1409" d="M102 698q0 195 87 359t259.5 262t415.5 98q129 0 243 -34.5t196 -96.5l-74 -190q-70 51 -163 83.5t-202 32.5q-152 0 -261 -67.5t-165.5 -185t-56.5 -263.5q0 -150 53 -267.5t157.5 -185t252.5 -67.5q119 0 221 40t180 99l70 -186q-88 -68 -211 -112t-260 -44 q-242 0 -409 99.5t-250 264.5t-83 361z" />
<glyph unicode="D" horiz-adv-x="1548" d="M207 0v1393h532q226 0 385.5 -90.5t240.5 -248t81 -356.5q0 -203 -81 -361.5t-239.5 -247.5t-386.5 -89h-532zM485 201h254q203 0 315.5 134t112.5 361q0 223 -112.5 359.5t-315.5 136.5h-254v-991z" />
<glyph unicode="E" horiz-adv-x="1214" d="M207 0v1393h858v-199h-580v-358h498v-199h-498v-438h621v-199h-899z" />
<glyph unicode="F" horiz-adv-x="1112" d="M207 0v1393h858v-201h-580v-416h498v-201h-498v-575h-278z" />
<glyph unicode="G" horiz-adv-x="1458" d="M102 698q0 195 87 359t259.5 262t415.5 98q129 0 243 -34.5t196 -96.5l-74 -190q-70 51 -163 83.5t-202 32.5q-152 0 -261 -67.5t-165.5 -185t-56.5 -263.5q0 -150 53 -267.5t157.5 -185t252.5 -67.5q100 0 223 23v471h270v-594q-90 -45 -220 -74t-273 -29 q-242 0 -409 99.5t-250 264.5t-83 361z" />
<glyph unicode="H" horiz-adv-x="1630" d="M207 0v1393h278v-555h662v555h278v-1393h-278v635h-662v-635h-278z" />
<glyph unicode="I" horiz-adv-x="690" d="M207 0v1393h278v-1393h-278z" />
<glyph unicode="J" horiz-adv-x="690" d="M-123 -477l23 201q66 -10 114 -11q100 0 145.5 62.5t45.5 195.5v1422h278v-1426q0 -223 -105.5 -342t-322.5 -119q-74 1 -178 17z" />
<glyph unicode="K" horiz-adv-x="1456" d="M207 0v1393h278v-1393h-278zM494 727v41l540 625h324l-588 -641l655 -752h-338z" />
<glyph unicode="L" horiz-adv-x="1146" d="M207 0v1393h278v-1194h621v-199h-899z" />
<glyph unicode="M" horiz-adv-x="1841" d="M207 0v1393h258l457 -715l456 715h258v-1393h-272v428l18 535l-358 -570h-205l-362 578l22 -543v-428h-272z" />
<glyph unicode="N" horiz-adv-x="1630" d="M207 0v1393h248l712 -981l-20 495v486h278v-1393l-247 -2l-713 983l20 -469v-512h-278z" />
<glyph unicode="O" horiz-adv-x="1644" d="M102 694q0 201 82 365t245 261t392 97q227 0 390 -97t246 -261t83 -363q0 -201 -83 -365.5t-244.5 -262t-391.5 -97.5q-229 0 -391 97.5t-245 262.5t-83 363zM383 696q0 -150 51 -267.5t150.5 -185t238.5 -67.5q138 0 237 67.5t151.5 185.5t52.5 267q0 147 -52.5 264 t-151.5 184.5t-237 67.5q-139 0 -238.5 -67.5t-150.5 -184t-51 -264.5z" />
<glyph unicode="P" horiz-adv-x="1329" d="M207 0v1393h524q537 -1 537 -435q0 -217 -131 -326.5t-406 -109.5h-246v-522h-278zM485 721h246q131 0 194.5 57.5t63.5 177.5q0 238 -258 238h-246v-473z" />
<glyph unicode="Q" horiz-adv-x="1644" d="M102 694q0 201 82 365t245 261t392 97q227 0 390 -97t246 -261t83 -363q0 -221 -99.5 -396t-285.5 -261l121 -141q143 -174 297 -174q125 0 227 67l33 -192q-70 -45 -134.5 -66.5t-135.5 -21.5q-135 0 -247 49t-204 157l-215 256q-25 -2 -76 -2q-229 0 -391 97.5 t-245 262.5t-83 363zM383 696q0 -149 51 -267t150.5 -185.5t238.5 -67.5q137 0 236.5 67.5t152 185.5t52.5 267q0 147 -52.5 264t-151.5 184.5t-237 67.5q-139 0 -238.5 -67.5t-150.5 -184t-51 -264.5z" />
<glyph unicode="R" horiz-adv-x="1458" d="M207 0v1393h512q528 0 528 -402q0 -295 -258 -379l420 -612h-322l-374 563h-228v-563h-278zM485 762h234q129 0 189.5 53t60.5 162q0 217 -250 217h-234v-432z" />
<glyph unicode="S" horiz-adv-x="1232" d="M94 86l68 195q102 -53 200.5 -79t208.5 -26q125 0 209 51.5t84 147.5q0 59 -40 101t-99 69.5t-164 64.5q-135 49 -218 91t-142.5 117t-59.5 190q0 195 144.5 302t382.5 107t417 -110l-67 -193q-170 98 -342 98q-115 0 -188.5 -49t-73.5 -139q0 -53 37.5 -92t94 -64.5 t159.5 -64.5q139 -51 225 -95t147.5 -121t61.5 -196q0 -197 -149.5 -308.5t-414.5 -111.5q-291 0 -481 115z" />
<glyph unicode="T" horiz-adv-x="1236" d="M55 1192v201h1127v-201h-424v-1192h-279v1192h-424z" />
<glyph unicode="U" horiz-adv-x="1589" d="M186 539v854h279v-852q0 -182 85 -273.5t247 -91.5q160 0 244.5 91t84.5 274v852h279v-850q0 -264 -156.5 -418t-451.5 -154t-453 152.5t-158 415.5z" />
<glyph unicode="V" horiz-adv-x="1429" d="M39 1393h285l395 -1133l393 1133h281l-537 -1405h-281z" />
<glyph unicode="W" horiz-adv-x="2187" d="M39 1393h285l299 -1108l329 1108h260l332 -1110l318 1110h288l-469 -1405h-276l-324 1056l-323 -1056h-277z" />
<glyph unicode="X" horiz-adv-x="1484" d="M53 0l525 717l-494 676h330l327 -506l328 506h326l-492 -672l531 -721h-330l-363 539l-362 -539h-326z" />
<glyph unicode="Y" horiz-adv-x="1370" d="M33 1393h297l356 -627l361 627h292l-514 -828v-565h-278v559z" />
<glyph unicode="Z" horiz-adv-x="1409" d="M125 0v154l827 1038h-800v201h1146v-170l-823 -1022h852v-201h-1202z" />
<glyph unicode="[" horiz-adv-x="749" d="M147 -260v1683h455v-182l-184 -20v-1278l184 -21v-182h-455z" />
<glyph unicode="\" horiz-adv-x="833" d="M-16 1450h276l588 -1933h-275z" />
<glyph unicode="]" horiz-adv-x="749" d="M147 -76l185 19v1278l-185 18v184h455v-1683h-455v184z" />
<glyph unicode="^" d="M219 309l281 535h239l281 -535h-248l-151 332l-152 -332h-250z" />
<glyph unicode="_" horiz-adv-x="1024" d="M0 -344h1024v-195h-1024v195z" />
<glyph unicode="`" horiz-adv-x="1024" d="M262 1640h289l199 -432h-209z" />
<glyph unicode="a" horiz-adv-x="1200" d="M90 252q0 117 61.5 190.5t171 118.5t310.5 103l106 30v45q0 104 -44 160.5t-134 56.5q-94 0 -185 -38.5t-208 -137.5l-72 178q256 201 541 201q186 0 279.5 -99t93.5 -335v-463q0 -45 16 -64.5t55 -19.5t82 17l15 -187q-90 -27 -187 -28q-90 0 -150.5 30.5t-84.5 104.5 q-90 -68 -176 -103t-183 -35q-135 0 -221 79t-86 196zM360 283q0 -107 119 -107q59 0 121 26.5t139 80.5v254l-73 -25q-174 -57 -240 -106.5t-66 -122.5z" />
<glyph unicode="b" horiz-adv-x="1329" d="M178 0v1638h271v-567q133 88 290 88q148 0 261.5 -66.5t177 -197.5t63.5 -317q0 -203 -73.5 -339.5t-197.5 -202t-278 -65.5q-160 0 -295 97l-30 -68h-189zM449 229q100 -59 215 -59q303 0 303 408q0 205 -73 294t-181 89q-78 0 -138.5 -19.5t-125.5 -64.5v-648z" />
<glyph unicode="c" horiz-adv-x="1099" d="M90 563q0 164 63.5 299t197.5 216t335 81q90 0 182.5 -26.5t149.5 -69.5l-66 -189q-125 86 -266 87q-154 0 -237.5 -105.5t-83.5 -290.5q0 -186 76.5 -291.5t217.5 -105.5q90 0 163 32.5t151 94.5l84 -170q-72 -68 -174.5 -112t-223.5 -44q-188 0 -316 79t-190.5 213 t-62.5 302z" />
<glyph unicode="d" horiz-adv-x="1329" d="M90 553q0 311 168 458.5t447 147.5q98 0 176 -22v501h270v-1638h-203l-28 86q-143 -117 -328 -117q-147 0 -261 67.5t-177.5 199t-63.5 317.5zM365 553q0 -205 71.5 -294t181.5 -89q78 0 138.5 20.5t124.5 63.5v684q-72 23 -162 23q-180 0 -267 -105.5t-87 -302.5z" />
<glyph unicode="e" horiz-adv-x="1200" d="M90 563q0 172 63.5 306.5t190.5 212t313 77.5q211 0 331 -117.5t122 -330.5q0 -68 -23 -152h-731q2 -188 76 -289.5t227 -101.5q99 0 182 39t171 112l82 -169q-98 -90 -202 -135.5t-235 -45.5q-188 0 -315 79t-189.5 213t-62.5 302zM375 741h471v25q0 100 -56.5 154.5 t-144.5 54.5q-108 0 -176 -62.5t-94 -171.5z" />
<glyph unicode="f" horiz-adv-x="866" d="M74 934v115l174 59v92q0 217 105.5 333t318.5 116q74 0 178 -17l-23 -194q-68 10 -116 10q-100 0 -146.5 -63.5t-46.5 -188.5v-68h328v-194h-328v-934h-270v934h-174z" />
<glyph unicode="g" horiz-adv-x="1218" d="M61 -205q0 78 43 141.5t129 126.5q-59 29 -86.5 75t-27.5 98q0 61 43 120.5t135 126.5q-78 51 -119 130t-41 169q0 102 50.5 187.5t150.5 137.5t246 52q113 0 194 -31h426v-196l-217 24q43 -76 43 -170q0 -102 -50 -188t-151.5 -138t-244.5 -52q-68 0 -123 12 q-78 -72 -78 -123q0 -39 27.5 -56.5t89.5 -17.5h327q168 0 263.5 -74.5t95.5 -201.5q0 -125 -86 -228.5t-235.5 -164t-332.5 -60.5q-248 0 -359.5 88t-111.5 213zM317 -186q0 -121 215 -121q111 0 202 31.5t143.5 82t52.5 101.5q0 112 -160 112h-309h-29 q-115 -104 -115 -206zM397 784q0 -88 51.5 -140t135.5 -52t134 52t50 140t-49 139.5t-135 51.5t-136.5 -51.5t-50.5 -139.5z" />
<glyph unicode="h" horiz-adv-x="1325" d="M178 0v1638h271v-594q180 115 350 115q205 0 282.5 -107.5t77.5 -310.5v-741h-270v711q0 135 -38 190t-134 55q-129 0 -268 -104v-852h-271z" />
<glyph unicode="i" horiz-adv-x="638" d="M158 1536q0 66 47 113t112 47q68 0 115 -47t47 -113t-47 -113t-115 -47q-65 0 -112 47t-47 113zM184 0v1128h271v-1128h-271z" />
<glyph unicode="j" horiz-adv-x="626" d="M-154 -477l23 192q68 -10 117 -10q100 0 146 63.5t46 190.5v1169h271v-1173q0 -217 -105.5 -333t-318.5 -116q-75 1 -179 17zM154 1536q0 66 47 113t112 47q68 0 115 -47t47 -113t-47 -113t-115 -47q-65 0 -112 47t-47 113z" />
<glyph unicode="k" horiz-adv-x="1230" d="M178 0v1638h271v-1638h-271zM459 596v41l387 491h280l-411 -512l489 -616h-299z" />
<glyph unicode="l" horiz-adv-x="626" d="M178 0v1638h271v-1638h-271z" />
<glyph unicode="m" horiz-adv-x="2007" d="M178 0v1128h203l33 -104q199 135 377 135q117 0 189.5 -38t111.5 -109q211 147 395 147q201 0 276.5 -107.5t75.5 -310.5v-741h-268v711q0 135 -36 190t-130 55q-119 0 -264 -108l-4 10q6 -55 6 -117v-741h-269v711q0 135 -35.5 190t-129.5 55q-121 0 -260 -106v-850 h-271z" />
<glyph unicode="n" horiz-adv-x="1325" d="M178 0v1128h203l33 -104q197 135 385 135q205 0 281.5 -107.5t76.5 -310.5v-741h-268v711q0 135 -38 190t-134 55q-129 0 -268 -104v-852h-271z" />
<glyph unicode="o" horiz-adv-x="1316" d="M90 563q0 172 63.5 306.5t191.5 212t314 77.5q184 0 312.5 -81t193 -216t64.5 -295q0 -162 -64.5 -298t-192.5 -218t-313 -82q-184 0 -313 79t-192.5 213t-63.5 302zM362 565q0 -190 73 -293.5t222 -103.5q150 0 222.5 103.5t72.5 293.5q0 188 -73.5 292t-221.5 104 q-147 0 -221 -103.5t-74 -292.5z" />
<glyph unicode="p" horiz-adv-x="1329" d="M178 -479v1609h203l29 -88q143 117 329 117q148 0 261.5 -68.5t177 -201.5t63.5 -318q0 -305 -169 -453.5t-445 -148.5q-100 0 -178 23v-471h-271zM449 193q78 -25 163 -25q181 0 268 105.5t87 304.5q0 205 -72 292.5t-182 87.5q-78 0 -139.5 -19t-124.5 -62v-684z" />
<glyph unicode="q" horiz-adv-x="1329" d="M90 553q0 203 74 339t197.5 201.5t275.5 65.5q158 0 295 -94l31 65h188v-1615h-270v542q-133 -88 -289 -88q-147 0 -261 67.5t-177.5 199t-63.5 317.5zM365 553q0 -205 71.5 -294t181.5 -89q78 0 138.5 20.5t124.5 63.5v647q-100 59 -215 60q-301 0 -301 -408z" />
<glyph unicode="r" horiz-adv-x="894" d="M178 0v1128h203l45 -139q102 92 200.5 130t204.5 38v-256q-100 0 -189 -21.5t-193 -82.5v-797h-271z" />
<glyph unicode="s" horiz-adv-x="1062" d="M90 59l62 189q162 -80 335 -80q100 0 161 36t61 107q0 59 -56.5 94t-177.5 78q-113 41 -183.5 76t-120.5 97.5t-50 154.5q0 170 123 259t331 89q96 0 189.5 -21.5t165.5 -62.5l-62 -188q-143 74 -286 74q-90 0 -142.5 -30t-52.5 -91q0 -59 53.5 -91t173.5 -75 q115 -39 185.5 -75t123 -102.5t52.5 -168.5q0 -168 -126 -263.5t-357 -95.5q-232 0 -402 90z" />
<glyph unicode="t" horiz-adv-x="933" d="M45 934v115l203 69l78 289h163v-279h328v-194h-328v-528q0 -121 38 -173.5t118 -52.5q86 0 189 51l43 -172q-59 -39 -130 -59t-141 -20q-195 0 -291 95t-96 273v586h-174z" />
<glyph unicode="u" horiz-adv-x="1325" d="M168 387v741h270v-710q0 -135 37 -190.5t135 -55.5q127 0 269 107v849h270v-1128h-203l-33 104q-197 -135 -385 -135q-205 0 -282.5 107.5t-77.5 310.5z" />
<glyph unicode="v" horiz-adv-x="1179" d="M25 1128h276l293 -858l293 858h270l-436 -1140h-260z" />
<glyph unicode="w" horiz-adv-x="1744" d="M29 1128h276l207 -849l236 849h253l234 -852l211 852h272l-356 -1140h-258l-230 852l-231 -852h-258z" />
<glyph unicode="x" horiz-adv-x="1224" d="M29 0l428 588l-394 540h299l252 -387l250 387h293l-393 -538l434 -590h-301l-287 424l-284 -424h-297z" />
<glyph unicode="y" horiz-adv-x="1204" d="M29 -481l22 202q87 -28 152 -28h4q102 0 173 55t128 189l-461 1191h277l299 -856l288 856h273l-484 -1280q-70 -193 -185.5 -277.5t-281.5 -84.5q-119 0 -204 33z" />
<glyph unicode="z" horiz-adv-x="1093" d="M70 0v145l618 789h-592v194h901v-149l-614 -784h635v-195h-948z" />
<glyph unicode="{" horiz-adv-x="749" d="M27 502v176q109 10 161 48t52 110q0 57 -21 159q-18 88 -18 142q0 164 134 236.5t337 70.5v-178q-205 2 -205 -131q0 -80 20 -179q18 -78 19 -137q0 -84 -41 -143.5t-117 -83.5v-4q78 -25 118 -83.5t40 -146.5q0 -55 -19 -137q-20 -98 -20 -176q0 -131 205 -131v-180 q-203 0 -336 72.5t-133 236.5q0 53 18 141q20 98 21 158q0 74 -52.5 110.5t-162.5 49.5z" />
<glyph unicode="|" horiz-adv-x="774" d="M248 -483v2136h278v-2136h-278z" />
<glyph unicode="}" horiz-adv-x="749" d="M78 -86q205 0 205 131q0 78 -21 176q-18 82 -18 137q0 88 40 146.5t117 83.5v4q-76 25 -116.5 84t-40.5 143q0 59 18 137q20 98 21 179q0 133 -205 131v178q203 2 336 -71t133 -236q0 -53 -19 -142q-20 -102 -20 -159q0 -72 53 -110t162 -48v-176q-111 -12 -163 -49 t-52 -111q0 -55 20 -158q2 -10 10.5 -56t8.5 -85q0 -164 -133 -236.5t-336 -72.5v180z" />
<glyph unicode="~" d="M57 510q76 102 164 167.5t207 65.5q61 0 110.5 -20.5t108.5 -56.5q55 -33 91 -48.5t79 -15.5q133 0 238 148l129 -125q-84 -104 -166 -166t-201 -62q-55 0 -98 18.5t-111 55.5q-55 35 -95 51.5t-85 16.5q-74 0 -132 -42t-110 -112z" />
<glyph horiz-adv-x="794" />
<glyph unicode="&#xa1;" horiz-adv-x="645" d="M151 989q0 70 50.5 119t119.5 49q70 0 120 -49t50 -119q0 -72 -50 -121t-120 -49q-72 0 -121 49.5t-49 120.5zM152 0zM186 -250l21 957h229l41 -957h-291z" />
<glyph unicode="&#xa2;" d="M84 692q0 217 125 374t375 196v376h241v-374q92 -16 178.5 -57.5t141.5 -96.5l-68 -186q-74 68 -163 108.5t-181 40.5q-178 0 -276.5 -101.5t-98.5 -277.5q0 -184 91.5 -288.5t257.5 -104.5q113 0 205 49t188 142l82 -173q-66 -73 -157 -128.5t-200 -75.5v-367h-241v363 q-246 35 -373 193.5t-127 387.5z" />
<glyph unicode="&#xa3;" d="M129 602v197h125q-37 106 -37 217q0 184 131 292.5t357 108.5q223 -2 405 -119l-72 -182q-78 47 -147.5 71.5t-151.5 24.5q-121 0 -185.5 -59t-64.5 -147q0 -100 50 -207h426v-197h-336q23 -68 22 -147q0 -68 -30.5 -127.5t-92.5 -126.5h594v-201h-977v150 q233 154 234 305q0 68 -33 147h-217z" />
<glyph unicode="&#xa4;" d="M141 254l129 129q-43 86 -43 188q0 98 41 187l-127 125l166 166l121 -123q86 45 193 45q106 0 192 -45l123 123l166 -166l-127 -127q41 -86 41 -181q0 -108 -45 -192l129 -129l-166 -166l-127 129q-82 -41 -186 -41t-187 41l-127 -129zM436 573q0 -90 52.5 -149 t132.5 -59q82 0 133 59t51 149q0 88 -51.5 148.5t-132.5 60.5q-80 0 -132.5 -60t-52.5 -149z" />
<glyph unicode="&#xa5;" d="M82 1393h289l252 -422l256 422h284l-340 -510h264v-197h-329v-100h329v-199h-329v-387h-273v387h-338v199h338v100h-338v197h273z" />
<glyph unicode="&#xa6;" horiz-adv-x="774" d="M248 352h278v-835h-278v835zM248 817v836h278v-836h-278z" />
<glyph unicode="&#xa7;" horiz-adv-x="1230" d="M180 -211l62 188q164 -80 323 -79q98 0 159.5 34.5t61.5 110.5q0 57 -56 92t-177 78q-111 39 -182.5 75t-121.5 97t-50 154q0 188 163 290q-131 88 -131 230q0 170 123 259t330 89q96 0 189.5 -21.5t166.5 -60.5l-61 -190q-137 74 -287 73q-90 0 -142 -29.5t-52 -91.5 q0 -59 55 -92.5t172 -72.5q115 -39 185.5 -76t122.5 -103.5t52 -171.5q0 -174 -151 -278q119 -89 119 -234q0 -172 -127 -266t-357 -94q-111 0 -211 24.5t-178 65.5zM465 567q0 -59 55 -91t178 -75q121 63 121 154q0 59 -56 95t-175 79q-123 -61 -123 -162z" />
<glyph unicode="&#xa8;" horiz-adv-x="1024" d="M127 1522q0 61 45 105t104 44t104.5 -44t45.5 -105q0 -59 -45 -103.5t-105 -44.5q-59 0 -104 44t-45 104zM600 1522q0 61 45 105t105 44q59 0 104 -44t45 -105q0 -59 -45 -103.5t-104 -44.5q-60 0 -105 44t-45 104z" />
<glyph unicode="&#xa9;" horiz-adv-x="1675" d="M102 698q0 197 94.5 362t262.5 261t379 96t378.5 -96t262 -261t94.5 -362q0 -199 -94.5 -364.5t-262 -263t-378.5 -97.5t-379 97.5t-262.5 263.5t-94.5 364zM301 698q0 -156 67.5 -284.5t189.5 -203.5t280 -75q157 0 279 75t189.5 204t67.5 284q0 154 -67.5 282 t-189.5 201.5t-279 73.5q-158 0 -280 -73.5t-189.5 -201.5t-67.5 -282zM481 696q0 102 45 188.5t133.5 137.5t208.5 51q70 0 130.5 -19.5t105.5 -52.5l-53 -137q-68 49 -160 49q-96 0 -154.5 -62.5t-58.5 -154.5q0 -96 54 -157.5t149 -61.5q49 0 93 16.5t75 43.5l61 -136 q-47 -37 -112.5 -60.5t-139.5 -23.5q-121 0 -206 52.5t-128 138.5t-43 188z" />
<glyph unicode="&#xaa;" horiz-adv-x="829" d="M51 1341q193 129 393 129q150 0 215.5 -71.5t65.5 -233.5v-250q0 -20 6 -30.5t25 -10.5q20 0 41 11l12 -176q-63 -20 -137 -21q-137 0 -172 84q-61 -43 -117.5 -64.5t-126.5 -21.5q-90 0 -146.5 52.5t-56.5 127.5q0 86 49.5 141.5t138.5 91.5t244 75v20q0 51 -21.5 82 t-82.5 31q-66 0 -129.5 -23.5t-138.5 -79.5zM55 346v184h731v-184h-731zM295 899q0 -25 17.5 -39t43.5 -14q49 0 129 59v142q-106 -37 -148 -69t-42 -79z" />
<glyph unicode="&#xab;" horiz-adv-x="1232" d="M94 98zM94 530l342 433l189 -140l-238 -293l238 -294l-189 -138zM610 530l342 433l189 -140l-238 -293l238 -294l-189 -138z" />
<glyph unicode="&#xac;" d="M66 500v194h1108v-39h2v-620h-209v465h-901z" />
<glyph unicode="&#xad;" horiz-adv-x="1228" d="M41 481v195h496v-195h-496zM41 481z" />
<glyph unicode="&#xae;" horiz-adv-x="925" d="M68 1083q0 111 53 201t143 141.5t199 51.5q108 0 198.5 -51.5t142.5 -141.5t52 -201t-52 -200.5t-142.5 -142t-198.5 -52.5q-109 0 -199 52.5t-143 142.5t-53 200zM176 1083q0 -82 39 -149.5t104.5 -105t143.5 -37.5t143.5 37.5t104.5 105t39 149.5t-39 149.5 t-104.5 106.5t-143.5 39t-143.5 -39t-104.5 -106.5t-39 -149.5zM326 922v325h151q63 0 99 -31.5t36 -80.5q0 -64 -49 -93l82 -120h-113l-63 98h-45v-98h-98zM424 1096h47q41 0 41 41q0 35 -41 34h-47v-75z" />
<glyph unicode="&#xaf;" horiz-adv-x="1024" d="M145 1409v193h734v-193h-734z" />
<glyph unicode="&#xb0;" horiz-adv-x="1003" d="M121 1096q0 100 46 187t132 139.5t201 52.5q117 0 204 -52.5t133 -138.5t46 -184q0 -102 -46 -188.5t-133.5 -138.5t-203.5 -52q-115 0 -201 51t-132 137t-46 187zM317 1098q0 -90 52.5 -149.5t132.5 -59.5t132 59.5t52 149.5q0 88 -52 148.5t-132 60.5t-132.5 -60.5 t-52.5 -148.5z" />
<glyph unicode="&#xb1;" d="M66 0v186h1108v-186h-1108zM66 623v186h452v336h209v-336h447v-186h-447v-328h-209v328h-452z" />
<glyph unicode="&#xb2;" horiz-adv-x="849" d="M94 1630q64 60 143.5 96.5t168.5 36.5q164 0 246.5 -75.5t82.5 -184.5q0 -90 -51 -163.5t-174 -174.5l-90 -71v-2h338v-179h-631v164l205 160q94 78 132 135.5t38 110.5q0 49 -28 77.5t-75 28.5q-100 0 -241 -119z" />
<glyph unicode="&#xb3;" horiz-adv-x="849" d="M84 975l59 149q117 -72 240 -71q68 0 107.5 30.5t39.5 79.5q0 47 -31.5 74t-88.5 27q-68 0 -134 -23l-20 156q127 29 179 53.5t52 81.5q0 33 -25.5 51.5t-70.5 18.5q-51 0 -111.5 -23t-111.5 -66l-59 136q63 55 145 84.5t166 29.5q133 0 214 -57t81 -154q0 -57 -37 -105 t-96 -81q77 -27 127.5 -81t50.5 -134q0 -72 -44 -131t-130 -94t-205 -35q-170 0 -297 84z" />
<glyph unicode="&#xb4;" horiz-adv-x="1024" d="M274 1208l199 434h289l-279 -434h-209z" />
<glyph unicode="&#xb6;" horiz-adv-x="1230" d="M61 903q0 139 62.5 251t186.5 175.5t300 63.5h426v-1438q0 -217 -105.5 -333t-318.5 -116q-74 0 -178 17l23 194q66 -10 114 -10q100 0 147.5 62.5t47.5 189.5v451h-156q-264 0 -406.5 134t-142.5 359z" />
<glyph unicode="&#xb7;" horiz-adv-x="645" d="M154 580q0 72 50 122t120 50t120 -50.5t50 -121.5q0 -70 -50.5 -119t-119.5 -49q-70 0 -120 49t-50 119z" />
<glyph unicode="&#xb8;" horiz-adv-x="1024" d="M322 -164l124 230h179l-93 -175q78 -2 131.5 -45t53.5 -108q0 -86 -79 -151.5t-255 -82.5l-43 123q100 16 138 40t38 57q0 25 -17.5 38t-47.5 13q-31 0 -66 -15z" />
<glyph unicode="&#xb9;" horiz-adv-x="849" d="M172 1681l231 68h195v-657h172v-179h-575v179h170v469l-146 -35z" />
<glyph unicode="&#xba;" horiz-adv-x="880" d="M49 1075q0 105 44 196t132 146.5t215 55.5t216 -55.5t133.5 -145.5t44.5 -193q0 -106 -44.5 -197t-133.5 -146.5t-216 -55.5t-215 55.5t-132 145.5t-44 194zM78 346v184h727v-184h-727zM291 1077q0 -227 147 -227q152 0 152 227q0 226 -152 226q-147 0 -147 -226z" />
<glyph unicode="&#xbb;" horiz-adv-x="1232" d="M90 98zM90 238l238 292l-238 295l189 138l342 -433l-342 -432zM606 238l238 292l-238 295l189 138l342 -433l-342 -432z" />
<glyph unicode="&#xbc;" horiz-adv-x="2119" d="M172 0zM172 1325l231 68h195v-657h172v-179h-575v179h170v469l-146 -35zM630 39l820 1417l194 -117l-819 -1417zM1315 164v137l397 535h246v-496h131v-176h-131v-178h-229v178h-414zM1536 340h193v123l2 155l-103 -145z" />
<glyph unicode="&#xbd;" horiz-adv-x="2174" d="M172 0zM172 1325l231 68h195v-657h172v-179h-575v179h170v469l-146 -35zM630 39l820 1417l194 -117l-819 -1417zM1419 717q64 60 143.5 96.5t168.5 36.5q164 0 246.5 -75.5t82.5 -184.5q0 -90 -51 -163.5t-174 -174.5l-90 -71v-2h338v-179h-631v164l205 160 q94 78 132 135.5t38 110.5q0 49 -28 77.5t-75 28.5q-100 0 -241 -119z" />
<glyph unicode="&#xbe;" horiz-adv-x="2017" d="M84 0zM84 619l59 149q117 -72 240 -71q68 0 107.5 30.5t39.5 79.5q0 47 -31.5 74t-88.5 27q-68 0 -134 -23l-20 156q127 29 179 53.5t52 81.5q0 33 -25.5 51.5t-70.5 18.5q-51 0 -111.5 -23t-111.5 -66l-59 136q63 55 145 84.5t166 29.5q133 0 214 -57t81 -154 q0 -57 -37 -105t-96 -81q77 -27 127.5 -81t50.5 -134q0 -72 -44 -131t-130 -94t-205 -35q-170 0 -297 84zM530 39l820 1417l194 -117l-819 -1417zM1212 164v137l398 535h245v-496h132v-176h-132v-178h-229v178h-414zM1434 340h192v123l2 155l-102 -145z" />
<glyph unicode="&#xbf;" horiz-adv-x="1026" d="M139 0zM139 129q0 145 109.5 240.5t310.5 155.5l10 182h193l16 -365q-197 -33 -279.5 -78t-82.5 -137q0 -78 101 -127t370 -49v-203q-395 0 -571.5 106.5t-176.5 274.5zM493 989q0 70 50.5 119t119.5 49q70 0 120 -49t50 -119q0 -72 -50 -121t-120 -49q-72 0 -121 49.5 t-49 120.5z" />
<glyph unicode="&#xc0;" horiz-adv-x="1390" d="M25 0l536 1411h266l539 -1411h-283l-131 377h-516l-131 -377h-280zM25 0zM268 1845h285l272 -329h-229zM504 573h379l-189 545z" />
<glyph unicode="&#xc1;" horiz-adv-x="1390" d="M25 0l536 1411h266l539 -1411h-283l-131 377h-516l-131 -377h-280zM25 0zM504 573h379l-189 545zM567 1516l272 329h285l-328 -329h-229z" />
<glyph unicode="&#xc2;" horiz-adv-x="1390" d="M25 0l536 1411h266l539 -1411h-283l-131 377h-516l-131 -377h-280zM25 0zM280 1516l283 329h262l283 -329h-254l-160 200l-160 -200h-254zM504 573h379l-189 545z" />
<glyph unicode="&#xc3;" horiz-adv-x="1390" d="M25 0l536 1411h266l539 -1411h-283l-131 377h-516l-131 -377h-280zM25 0zM317 1520q10 152 72.5 238.5t159.5 86.5q45 0 80.5 -18.5t80.5 -52.5q39 -29 63.5 -42.5t53.5 -13.5q33 0 54.5 33t37.5 109l152 -9q-10 -145 -72.5 -236t-157.5 -91q-49 0 -86.5 19.5t-87.5 53.5 q-35 27 -58.5 40.5t-47.5 13.5q-35 0 -55.5 -33t-34.5 -107zM504 573h379l-189 545z" />
<glyph unicode="&#xc4;" horiz-adv-x="1390" d="M25 0l536 1411h266l539 -1411h-283l-131 377h-516l-131 -377h-280zM25 0zM319 1681q0 57 41 98.5t96 41.5q57 0 98.5 -41t41.5 -99q0 -55 -41 -96t-99 -41q-55 0 -96 41t-41 96zM504 573h379l-189 545zM792 1681q0 57 41 98.5t97 41.5q57 0 98 -41t41 -99q0 -55 -41 -96 t-98 -41q-56 0 -97 41t-41 96z" />
<glyph unicode="&#xc5;" horiz-adv-x="1390" d="M25 0l536 1411h266l539 -1411h-283l-131 377h-516l-131 -377h-280zM25 0zM428 1704q0 88 69.5 145.5t196.5 57.5q125 0 194.5 -57.5t69.5 -145.5t-69.5 -144.5t-194.5 -56.5q-127 0 -196.5 56.5t-69.5 144.5zM504 573h379l-189 545zM606 1704q0 -35 23.5 -54.5 t64.5 -19.5t64.5 19.5t23.5 54.5t-23.5 54.5t-64.5 19.5t-64.5 -19.5t-23.5 -54.5z" />
<glyph unicode="&#xc6;" horiz-adv-x="2050" d="M-2 0l897 1393h1006v-199h-582v-399h500v-199h-500v-397h620v-199h-899v510h-440l-315 -510h-287zM723 709h317v514z" />
<glyph unicode="&#xc7;" horiz-adv-x="1409" d="M102 698q0 195 87 359t259.5 262t415.5 98q129 0 243 -34.5t196 -96.5l-74 -190q-70 51 -163 83.5t-202 32.5q-152 0 -261 -67.5t-165.5 -185t-56.5 -263.5q0 -150 53 -267.5t157.5 -185t252.5 -67.5q119 0 221 40t180 99l70 -186q-76 -57 -177.5 -98t-213.5 -54l-45 -86 q77 -2 130.5 -45t53.5 -108q0 -86 -79 -151.5t-255 -82.5l-43 123q100 16 138 40t38 57q0 25 -17.5 38t-47.5 13q-31 0 -66 -15l-63 76l77 141q-209 20 -354 124t-217 259.5t-72 337.5z" />
<glyph unicode="&#xc8;" horiz-adv-x="1214" d="M207 0v1393h858v-199h-580v-358h498v-199h-498v-438h621v-199h-899zM207 0zM217 1845h285l272 -329h-229z" />
<glyph unicode="&#xc9;" horiz-adv-x="1214" d="M207 0v1393h858v-199h-580v-358h498v-199h-498v-438h621v-199h-899zM207 0zM516 1516l272 329h285l-328 -329h-229z" />
<glyph unicode="&#xca;" horiz-adv-x="1214" d="M207 0v1393h858v-199h-580v-358h498v-199h-498v-438h621v-199h-899zM207 0zM229 1516l283 329h262l283 -329h-254l-160 200l-160 -200h-254z" />
<glyph unicode="&#xcb;" horiz-adv-x="1214" d="M207 0v1393h858v-199h-580v-358h498v-199h-498v-438h621v-199h-899zM207 0zM268 1681q0 57 41 98.5t96 41.5q57 0 98.5 -41t41.5 -99q0 -55 -41 -96t-99 -41q-55 0 -96 41t-41 96zM741 1681q0 57 41 98.5t97 41.5q57 0 98 -41t41 -99q0 -55 -41 -96t-98 -41q-56 0 -97 41 t-41 96z" />
<glyph unicode="&#xcc;" horiz-adv-x="690" d="M-80 1845h285l272 -329h-229zM0 0zM207 0v1393h278v-1393h-278z" />
<glyph unicode="&#xcd;" horiz-adv-x="690" d="M207 0v1393h278v-1393h-278zM207 0zM219 1516l272 329h285l-328 -329h-229z" />
<glyph unicode="&#xce;" horiz-adv-x="690" d="M-68 1516l283 329h262l283 -329h-254l-160 200l-160 -200h-254zM0 0zM207 0v1393h278v-1393h-278z" />
<glyph unicode="&#xcf;" horiz-adv-x="690" d="M-29 1681q0 57 41 98.5t96 41.5q57 0 98.5 -41t41.5 -99q0 -55 -41 -96t-99 -41q-55 0 -96 41t-41 96zM0 0zM207 0v1393h278v-1393h-278zM444 1681q0 57 41 98.5t97 41.5q57 0 98 -41t41 -99q0 -55 -41 -96t-98 -41q-56 0 -97 41t-41 96z" />
<glyph unicode="&#xd0;" horiz-adv-x="1548" d="M6 627v192h201v574h532q226 0 385.5 -90.5t240.5 -248t81 -356.5q0 -203 -81 -361.5t-239.5 -247.5t-386.5 -89h-532v627h-201zM485 201h254q203 0 315.5 134t112.5 361q0 223 -112.5 359.5t-315.5 136.5h-254v-373h320v-192h-320v-426z" />
<glyph unicode="&#xd1;" horiz-adv-x="1630" d="M207 0v1393h248l712 -981l-20 495v486h278v-1393l-247 -2l-713 983l20 -469v-512h-278zM207 0zM436 1520q10 152 72.5 238.5t159.5 86.5q45 0 80.5 -18.5t80.5 -52.5q39 -29 63.5 -42.5t53.5 -13.5q33 0 54.5 33t37.5 109l152 -9q-10 -145 -72.5 -236t-157.5 -91 q-49 0 -86.5 19.5t-87.5 53.5q-35 27 -58.5 40.5t-47.5 13.5q-35 0 -55.5 -33t-34.5 -107z" />
<glyph unicode="&#xd2;" horiz-adv-x="1644" d="M102 0zM102 694q0 201 82 365t245 261t392 97q227 0 390 -97t246 -261t83 -363q0 -201 -83 -365.5t-244.5 -262t-391.5 -97.5q-229 0 -391 97.5t-245 262.5t-83 363zM383 696q0 -150 51 -267.5t150.5 -185t238.5 -67.5q138 0 237 67.5t151.5 185.5t52.5 267 q0 147 -52.5 264t-151.5 184.5t-237 67.5q-139 0 -238.5 -67.5t-150.5 -184t-51 -264.5zM395 1845h285l272 -329h-229z" />
<glyph unicode="&#xd3;" horiz-adv-x="1644" d="M102 0zM102 694q0 201 82 365t245 261t392 97q227 0 390 -97t246 -261t83 -363q0 -201 -83 -365.5t-244.5 -262t-391.5 -97.5q-229 0 -391 97.5t-245 262.5t-83 363zM383 696q0 -150 51 -267.5t150.5 -185t238.5 -67.5q138 0 237 67.5t151.5 185.5t52.5 267 q0 147 -52.5 264t-151.5 184.5t-237 67.5q-139 0 -238.5 -67.5t-150.5 -184t-51 -264.5zM694 1516l272 329h285l-328 -329h-229z" />
<glyph unicode="&#xd4;" horiz-adv-x="1644" d="M102 0zM102 694q0 201 82 365t245 261t392 97q227 0 390 -97t246 -261t83 -363q0 -201 -83 -365.5t-244.5 -262t-391.5 -97.5q-229 0 -391 97.5t-245 262.5t-83 363zM383 696q0 -150 51 -267.5t150.5 -185t238.5 -67.5q138 0 237 67.5t151.5 185.5t52.5 267 q0 147 -52.5 264t-151.5 184.5t-237 67.5q-139 0 -238.5 -67.5t-150.5 -184t-51 -264.5zM407 1516l283 329h262l283 -329h-254l-160 200l-160 -200h-254z" />
<glyph unicode="&#xd5;" horiz-adv-x="1644" d="M102 0zM102 694q0 201 82 365t245 261t392 97q227 0 390 -97t246 -261t83 -363q0 -201 -83 -365.5t-244.5 -262t-391.5 -97.5q-229 0 -391 97.5t-245 262.5t-83 363zM383 696q0 -150 51 -267.5t150.5 -185t238.5 -67.5q138 0 237 67.5t151.5 185.5t52.5 267 q0 147 -52.5 264t-151.5 184.5t-237 67.5q-139 0 -238.5 -67.5t-150.5 -184t-51 -264.5zM444 1520q10 152 72.5 238.5t159.5 86.5q45 0 80.5 -18.5t80.5 -52.5q39 -29 63.5 -42.5t53.5 -13.5q33 0 54.5 33t37.5 109l152 -9q-10 -145 -72.5 -236t-157.5 -91q-49 0 -86.5 19.5 t-87.5 53.5q-35 27 -58.5 40.5t-47.5 13.5q-35 0 -55.5 -33t-34.5 -107z" />
<glyph unicode="&#xd6;" horiz-adv-x="1644" d="M102 0zM102 694q0 201 82 365t245 261t392 97q227 0 390 -97t246 -261t83 -363q0 -201 -83 -365.5t-244.5 -262t-391.5 -97.5q-229 0 -391 97.5t-245 262.5t-83 363zM383 696q0 -150 51 -267.5t150.5 -185t238.5 -67.5q138 0 237 67.5t151.5 185.5t52.5 267 q0 147 -52.5 264t-151.5 184.5t-237 67.5q-139 0 -238.5 -67.5t-150.5 -184t-51 -264.5zM446 1681q0 57 41 98.5t96 41.5q57 0 98.5 -41t41.5 -99q0 -55 -41 -96t-99 -41q-55 0 -96 41t-41 96zM919 1681q0 57 41 98.5t97 41.5q57 0 98 -41t41 -99q0 -55 -41 -96t-98 -41 q-56 0 -97 41t-41 96z" />
<glyph unicode="&#xd7;" d="M156 272l325 326l-317 315l137 138l317 -316l322 322l139 -137l-323 -324l329 -328l-137 -139l-330 330l-325 -326z" />
<glyph unicode="&#xd8;" horiz-adv-x="1679" d="M102 694q0 201 82 365t245 261t392 97q233 0 406 -106l151 176l150 -129l-152 -176q80 -97 122 -221.5t42 -264.5q0 -201 -83 -365.5t-244.5 -262t-391.5 -97.5q-233 0 -399 103l-156 -183l-149 129l155 181q-84 98 -127 224t-43 269zM383 696q0 -166 63 -293l629 732 q-106 78 -252 77q-139 0 -238.5 -67.5t-150.5 -184t-51 -264.5zM575 250q102 -74 248 -74q138 0 237 67.5t151.5 185.5t52.5 267q0 164 -62 283z" />
<glyph unicode="&#xd9;" horiz-adv-x="1589" d="M186 0zM186 539v854h279v-852q0 -182 85 -273.5t247 -91.5q160 0 244.5 91t84.5 274v852h279v-850q0 -264 -156.5 -418t-451.5 -154t-453 152.5t-158 415.5zM371 1845h285l272 -329h-229z" />
<glyph unicode="&#xda;" horiz-adv-x="1589" d="M186 0zM186 539v854h279v-852q0 -182 85 -273.5t247 -91.5q160 0 244.5 91t84.5 274v852h279v-850q0 -264 -156.5 -418t-451.5 -154t-453 152.5t-158 415.5zM670 1516l272 329h285l-328 -329h-229z" />
<glyph unicode="&#xdb;" horiz-adv-x="1589" d="M186 0zM186 539v854h279v-852q0 -182 85 -273.5t247 -91.5q160 0 244.5 91t84.5 274v852h279v-850q0 -264 -156.5 -418t-451.5 -154t-453 152.5t-158 415.5zM383 1516l283 329h262l283 -329h-254l-160 200l-160 -200h-254z" />
<glyph unicode="&#xdc;" horiz-adv-x="1589" d="M186 0zM186 539v854h279v-852q0 -182 85 -273.5t247 -91.5q160 0 244.5 91t84.5 274v852h279v-850q0 -264 -156.5 -418t-451.5 -154t-453 152.5t-158 415.5zM422 1681q0 57 41 98.5t96 41.5q57 0 98.5 -41t41.5 -99q0 -55 -41 -96t-99 -41q-55 0 -96 41t-41 96zM895 1681 q0 57 41 98.5t97 41.5q57 0 98 -41t41 -99q0 -55 -41 -96t-98 -41q-56 0 -97 41t-41 96z" />
<glyph unicode="&#xdd;" horiz-adv-x="1370" d="M33 0zM33 1393h297l356 -627l361 627h292l-514 -828v-565h-278v559zM559 1516l272 329h285l-328 -329h-229z" />
<glyph unicode="&#xde;" horiz-adv-x="1396" d="M207 0v1393h278v-240h246q537 0 537 -436q0 -217 -131 -326.5t-406 -109.5h-246v-281h-278zM485 479h246q133 2 195.5 59.5t62.5 178.5q0 238 -258 237h-246v-475z" />
<glyph unicode="&#xdf;" horiz-adv-x="1376" d="M178 0v1190q0 219 135.5 339t393.5 120q209 0 325.5 -85t116.5 -235q0 -88 -43 -153.5t-123 -143.5q-61 -59 -91 -99t-30 -87q0 -51 38 -85t124 -85q82 -47 134 -88t90 -106.5t38 -155.5q0 -106 -57.5 -187.5t-153.5 -125.5t-211 -44q-180 0 -334 68l60 190 q59 -27 127.5 -43t132.5 -16q80 0 126 36t46 105q0 57 -42 96t-132 91q-80 45 -129 82.5t-85 98t-36 142.5q0 72 24.5 128.5t57.5 96t88 95.5q57 57 86 96t29 84q0 63 -49.5 96t-141.5 33q-244 0 -243 -262v-1186h-271z" />
<glyph unicode="&#xe0;" horiz-adv-x="1200" d="M90 0zM90 252q0 117 61.5 190.5t171 118.5t310.5 103l106 30v45q0 104 -44 160.5t-134 56.5q-94 0 -185 -38.5t-208 -137.5l-72 178q256 201 541 201q186 0 279.5 -99t93.5 -335v-463q0 -45 16 -64.5t55 -19.5t82 17l15 -187q-90 -27 -187 -28q-90 0 -150.5 30.5 t-84.5 104.5q-90 -68 -176 -103t-183 -35q-135 0 -221 79t-86 196zM237 1693h289l199 -432h-209zM360 283q0 -107 119 -107q59 0 121 26.5t139 80.5v254l-73 -25q-174 -57 -240 -106.5t-66 -122.5z" />
<glyph unicode="&#xe1;" horiz-adv-x="1200" d="M90 0zM90 252q0 117 61.5 190.5t171 118.5t310.5 103l106 30v45q0 104 -44 160.5t-134 56.5q-94 0 -185 -38.5t-208 -137.5l-72 178q256 201 541 201q186 0 279.5 -99t93.5 -335v-463q0 -45 16 -64.5t55 -19.5t82 17l15 -187q-90 -27 -187 -28q-90 0 -150.5 30.5 t-84.5 104.5q-90 -68 -176 -103t-183 -35q-135 0 -221 79t-86 196zM360 283q0 -107 119 -107q59 0 121 26.5t139 80.5v254l-73 -25q-174 -57 -240 -106.5t-66 -122.5zM471 1261l199 434h289l-279 -434h-209z" />
<glyph unicode="&#xe2;" horiz-adv-x="1200" d="M90 0zM90 252q0 117 61.5 190.5t171 118.5t310.5 103l106 30v45q0 104 -44 160.5t-134 56.5q-94 0 -185 -38.5t-208 -137.5l-72 178q256 201 541 201q186 0 279.5 -99t93.5 -335v-463q0 -45 16 -64.5t55 -19.5t82 17l15 -187q-90 -27 -187 -28q-90 0 -150.5 30.5 t-84.5 104.5q-90 -68 -176 -103t-183 -35q-135 0 -221 79t-86 196zM240 1261l227 430h266l227 -430h-208l-152 258l-152 -258h-208zM360 283q0 -107 119 -107q59 0 121 26.5t139 80.5v254l-73 -25q-174 -57 -240 -106.5t-66 -122.5z" />
<glyph unicode="&#xe3;" horiz-adv-x="1200" d="M90 0zM90 252q0 117 61.5 190.5t171 118.5t310.5 103l106 30v45q0 104 -44 160.5t-134 56.5q-94 0 -185 -38.5t-208 -137.5l-72 178q256 201 541 201q186 0 279.5 -99t93.5 -335v-463q0 -45 16 -64.5t55 -19.5t82 17l15 -187q-90 -27 -187 -28q-90 0 -150.5 30.5 t-84.5 104.5q-90 -68 -176 -103t-183 -35q-135 0 -221 79t-86 196zM223 1339q10 154 72.5 240t159.5 86q45 0 80.5 -18.5t80.5 -53.5q39 -29 63.5 -42t53.5 -13q33 0 54.5 32.5t37.5 108.5l152 -8q-10 -145 -72.5 -236.5t-157.5 -91.5q-49 0 -86.5 19.5t-87.5 54.5 q-35 27 -58.5 40t-47.5 13q-35 0 -55.5 -32.5t-34.5 -106.5zM360 283q0 -107 119 -107q59 0 121 26.5t139 80.5v254l-73 -25q-174 -57 -240 -106.5t-66 -122.5z" />
<glyph unicode="&#xe4;" horiz-adv-x="1200" d="M90 0zM90 252q0 117 61.5 190.5t171 118.5t310.5 103l106 30v45q0 104 -44 160.5t-134 56.5q-94 0 -185 -38.5t-208 -137.5l-72 178q256 201 541 201q186 0 279.5 -99t93.5 -335v-463q0 -45 16 -64.5t55 -19.5t82 17l15 -187q-90 -27 -187 -28q-90 0 -150.5 30.5 t-84.5 104.5q-90 -68 -176 -103t-183 -35q-135 0 -221 79t-86 196zM215 1522q0 61 45 105t104 44t104.5 -44t45.5 -105q0 -59 -45 -103.5t-105 -44.5q-59 0 -104 44t-45 104zM360 283q0 -107 119 -107q59 0 121 26.5t139 80.5v254l-73 -25q-174 -57 -240 -106.5t-66 -122.5z M688 1522q0 61 45 105t105 44q59 0 104 -44t45 -105q0 -59 -45 -103.5t-104 -44.5q-60 0 -105 44t-45 104z" />
<glyph unicode="&#xe5;" horiz-adv-x="1200" d="M90 0zM90 252q0 117 61.5 190.5t171 118.5t310.5 103l106 30v45q0 104 -44 160.5t-134 56.5q-94 0 -185 -38.5t-208 -137.5l-72 178q256 201 541 201q186 0 279.5 -99t93.5 -335v-463q0 -45 16 -64.5t55 -19.5t82 17l15 -187q-90 -27 -187 -28q-90 0 -150.5 30.5 t-84.5 104.5q-90 -68 -176 -103t-183 -35q-135 0 -221 79t-86 196zM324 1491q0 96 73.5 166t202.5 70t204 -69.5t75 -166.5q0 -59 -33 -113.5t-95.5 -88t-150.5 -33.5t-150.5 33.5t-94 88t-31.5 113.5zM360 283q0 -107 119 -107q59 0 121 26.5t139 80.5v254l-73 -25 q-174 -57 -240 -106.5t-66 -122.5zM491 1491q0 -49 30 -81.5t79 -32.5q51 0 81 32.5t30 81.5q0 51 -30 83t-81 32q-49 0 -79 -31.5t-30 -83.5z" />
<glyph unicode="&#xe6;" horiz-adv-x="1851" d="M90 252q0 117 61.5 190.5t171 118.5t310.5 103l106 30v45q0 104 -44 160.5t-134 56.5q-94 0 -185 -38.5t-208 -137.5l-72 178q256 201 541 201q205 0 285 -133q143 133 385 133q211 0 330.5 -117.5t119.5 -330.5q0 -76 -20 -152h-731q2 -188 75.5 -289.5t227.5 -101.5 q96 0 178 40t172 114l84 -170q-98 -90 -201.5 -136.5t-234.5 -46.5q-158 0 -273.5 57.5t-185.5 161.5q-119 -102 -225.5 -156.5t-225.5 -54.5q-135 0 -221 79t-86 196zM360 283q0 -106 119 -107q68 0 138.5 35t166.5 106q-35 98 -39 222l-79 -27q-174 -57 -240 -106.5 t-66 -122.5zM1024 741h471v25q0 100 -57.5 154.5t-145.5 54.5q-108 0 -173.5 -62.5t-94.5 -171.5z" />
<glyph unicode="&#xe7;" horiz-adv-x="1099" d="M90 563q0 164 63.5 299t197.5 216t335 81q90 0 182.5 -26.5t149.5 -69.5l-66 -189q-125 86 -266 87q-154 0 -237.5 -105.5t-83.5 -290.5q0 -186 76.5 -291.5t217.5 -105.5q90 0 163 32.5t151 94.5l84 -170q-59 -57 -142.5 -98t-181.5 -54l-43 -82q78 -2 131 -45t53 -108 q0 -86 -78.5 -151.5t-254.5 -82.5l-43 123q100 16 138 40t38 57q0 25 -17.5 38t-48.5 13t-65 -15l-64 76l76 139q-229 33 -347 194t-118 394z" />
<glyph unicode="&#xe8;" horiz-adv-x="1200" d="M90 0zM90 563q0 172 63.5 306.5t190.5 212t313 77.5q211 0 331 -117.5t122 -330.5q0 -68 -23 -152h-731q2 -188 76 -289.5t227 -101.5q99 0 182 39t171 112l82 -169q-98 -90 -202 -135.5t-235 -45.5q-188 0 -315 79t-189.5 213t-62.5 302zM270 1693h289l199 -432h-209z M375 741h471v25q0 100 -56.5 154.5t-144.5 54.5q-108 0 -176 -62.5t-94 -171.5z" />
<glyph unicode="&#xe9;" horiz-adv-x="1200" d="M90 0zM90 563q0 172 63.5 306.5t190.5 212t313 77.5q211 0 331 -117.5t122 -330.5q0 -68 -23 -152h-731q2 -188 76 -289.5t227 -101.5q99 0 182 39t171 112l82 -169q-98 -90 -202 -135.5t-235 -45.5q-188 0 -315 79t-189.5 213t-62.5 302zM375 741h471v25 q0 100 -56.5 154.5t-144.5 54.5q-108 0 -176 -62.5t-94 -171.5zM503 1261l199 434h289l-279 -434h-209z" />
<glyph unicode="&#xea;" horiz-adv-x="1200" d="M90 0zM90 563q0 172 63.5 306.5t190.5 212t313 77.5q211 0 331 -117.5t122 -330.5q0 -68 -23 -152h-731q2 -188 76 -289.5t227 -101.5q99 0 182 39t171 112l82 -169q-98 -90 -202 -135.5t-235 -45.5q-188 0 -315 79t-189.5 213t-62.5 302zM273 1261l227 430h266l227 -430 h-208l-152 258l-152 -258h-208zM375 741h471v25q0 100 -56.5 154.5t-144.5 54.5q-108 0 -176 -62.5t-94 -171.5z" />
<glyph unicode="&#xeb;" horiz-adv-x="1200" d="M90 0zM90 563q0 172 63.5 306.5t190.5 212t313 77.5q211 0 331 -117.5t122 -330.5q0 -68 -23 -152h-731q2 -188 76 -289.5t227 -101.5q99 0 182 39t171 112l82 -169q-98 -90 -202 -135.5t-235 -45.5q-188 0 -315 79t-189.5 213t-62.5 302zM248 1522q0 61 45 105t104 44 t104.5 -44t45.5 -105q0 -59 -45 -103.5t-105 -44.5q-59 0 -104 44t-45 104zM375 741h471v25q0 100 -56.5 154.5t-144.5 54.5q-108 0 -176 -62.5t-94 -171.5zM721 1522q0 61 45 105t105 44q59 0 104 -44t45 -105q0 -59 -45 -103.5t-104 -44.5q-60 0 -105 44t-45 104z" />
<glyph unicode="&#xec;" horiz-adv-x="638" d="M-43 1693h289l199 -432h-209zM0 0zM184 0v1128h271v-1128h-271z" />
<glyph unicode="&#xed;" horiz-adv-x="638" d="M184 0v1128h271v-1128h-271zM184 0zM190 1261l199 434h289l-279 -434h-209z" />
<glyph unicode="&#xee;" horiz-adv-x="638" d="M-41 1261l227 430h266l227 -430h-208l-152 258l-152 -258h-208zM0 0zM184 0v1128h271v-1128h-271z" />
<glyph unicode="&#xef;" horiz-adv-x="638" d="M-66 1522q0 61 45 105t104 44t104.5 -44t45.5 -105q0 -59 -45 -103.5t-105 -44.5q-59 0 -104 44t-45 104zM0 0zM184 0v1128h271v-1128h-271zM407 1522q0 61 45 105t105 44q59 0 104 -44t45 -105q0 -59 -45 -103.5t-104 -44.5q-60 0 -105 44t-45 104z" />
<glyph unicode="&#xf0;" horiz-adv-x="1370" d="M90 539q0 154 66.5 282.5t194.5 206.5t304 78q96 0 179 -31q-72 121 -175 211l-325 -147l-74 161l229 105q-117 66 -253 108l147 142q180 -47 336 -148l291 133l73 -159l-206 -95q167 -155 258.5 -362t91.5 -422q0 -188 -72 -332.5t-198 -222.5t-287 -78 q-188 0 -319.5 78t-196 207t-64.5 285zM365 539q0 -162 78.5 -266.5t226.5 -104.5q129 0 205.5 113.5t76.5 314.5q0 86 -10 145q-104 166 -287 166q-137 0 -213.5 -101t-76.5 -267z" />
<glyph unicode="&#xf1;" horiz-adv-x="1325" d="M178 0v1128h203l33 -104q197 135 385 135q205 0 281.5 -107.5t76.5 -310.5v-741h-268v711q0 135 -38 190t-134 55q-129 0 -268 -104v-852h-271zM178 0zM291 1339q10 154 72.5 240t159.5 86q45 0 80.5 -18.5t80.5 -53.5q39 -29 63.5 -42t53.5 -13q33 0 54.5 32.5 t37.5 108.5l152 -8q-10 -145 -72.5 -236.5t-157.5 -91.5q-49 0 -86.5 19.5t-87.5 54.5q-35 27 -58.5 40t-47.5 13q-35 0 -55.5 -32.5t-34.5 -106.5z" />
<glyph unicode="&#xf2;" horiz-adv-x="1316" d="M90 0zM90 563q0 172 63.5 306.5t191.5 212t314 77.5q184 0 312.5 -81t193 -216t64.5 -295q0 -162 -64.5 -298t-192.5 -218t-313 -82q-184 0 -313 79t-192.5 213t-63.5 302zM295 1693h289l199 -432h-209zM362 565q0 -190 73 -293.5t222 -103.5q150 0 222.5 103.5 t72.5 293.5q0 188 -73.5 292t-221.5 104q-147 0 -221 -103.5t-74 -292.5z" />
<glyph unicode="&#xf3;" horiz-adv-x="1316" d="M90 0zM90 563q0 172 63.5 306.5t191.5 212t314 77.5q184 0 312.5 -81t193 -216t64.5 -295q0 -162 -64.5 -298t-192.5 -218t-313 -82q-184 0 -313 79t-192.5 213t-63.5 302zM362 565q0 -190 73 -293.5t222 -103.5q150 0 222.5 103.5t72.5 293.5q0 188 -73.5 292 t-221.5 104q-147 0 -221 -103.5t-74 -292.5zM528 1261l199 434h289l-279 -434h-209z" />
<glyph unicode="&#xf4;" horiz-adv-x="1316" d="M90 0zM90 563q0 172 63.5 306.5t191.5 212t314 77.5q184 0 312.5 -81t193 -216t64.5 -295q0 -162 -64.5 -298t-192.5 -218t-313 -82q-184 0 -313 79t-192.5 213t-63.5 302zM297 1261l227 430h266l227 -430h-208l-152 258l-152 -258h-208zM362 565q0 -190 73 -293.5 t222 -103.5q150 0 222.5 103.5t72.5 293.5q0 188 -73.5 292t-221.5 104q-147 0 -221 -103.5t-74 -292.5z" />
<glyph unicode="&#xf5;" horiz-adv-x="1316" d="M90 0zM90 563q0 172 63.5 306.5t191.5 212t314 77.5q184 0 312.5 -81t193 -216t64.5 -295q0 -162 -64.5 -298t-192.5 -218t-313 -82q-184 0 -313 79t-192.5 213t-63.5 302zM280 1339q10 154 72.5 240t159.5 86q45 0 80.5 -18.5t80.5 -53.5q39 -29 63.5 -42t53.5 -13 q33 0 54.5 32.5t37.5 108.5l152 -8q-10 -145 -72.5 -236.5t-157.5 -91.5q-49 0 -86.5 19.5t-87.5 54.5q-35 27 -58.5 40t-47.5 13q-35 0 -55.5 -32.5t-34.5 -106.5zM362 565q0 -190 73 -293.5t222 -103.5q150 0 222.5 103.5t72.5 293.5q0 188 -73.5 292t-221.5 104 q-147 0 -221 -103.5t-74 -292.5z" />
<glyph unicode="&#xf6;" horiz-adv-x="1316" d="M90 0zM90 563q0 172 63.5 306.5t191.5 212t314 77.5q184 0 312.5 -81t193 -216t64.5 -295q0 -162 -64.5 -298t-192.5 -218t-313 -82q-184 0 -313 79t-192.5 213t-63.5 302zM272 1522q0 61 45 105t104 44t104.5 -44t45.5 -105q0 -59 -45 -103.5t-105 -44.5q-59 0 -104 44 t-45 104zM362 565q0 -190 73 -293.5t222 -103.5q150 0 222.5 103.5t72.5 293.5q0 188 -73.5 292t-221.5 104q-147 0 -221 -103.5t-74 -292.5zM745 1522q0 61 45 105t105 44q59 0 104 -44t45 -105q0 -59 -45 -103.5t-104 -44.5q-60 0 -105 44t-45 104z" />
<glyph unicode="&#xf7;" d="M66 500v194h1108v-194h-1108zM451 186q0 72 50 121t120 49q72 0 121 -49t49 -121q0 -70 -49.5 -120t-120.5 -50q-70 0 -120 50.5t-50 119.5zM451 1008q0 72 50 121t120 49q72 0 121 -49.5t49 -120.5q0 -70 -50.5 -120t-119.5 -50q-70 0 -120 50t-50 120z" />
<glyph unicode="&#xf8;" horiz-adv-x="1316" d="M90 563q0 172 63.5 306.5t191.5 212t314 77.5q170 0 293 -69l97 131l118 -78l-102 -139q82 -82 123 -196t41 -241q0 -162 -64.5 -298t-192.5 -218t-313 -82q-172 0 -303 72l-100 -137l-119 78l109 147q-78 80 -117 191.5t-39 242.5zM362 565q0 -135 37 -227l424 575 q-70 47 -166 48q-147 0 -221 -103.5t-74 -292.5zM487 219q70 -51 170 -51q150 0 222.5 103.5t72.5 293.5q0 141 -39 232z" />
<glyph unicode="&#xf9;" horiz-adv-x="1325" d="M168 0zM168 387v741h270v-710q0 -135 37 -190.5t135 -55.5q127 0 269 107v849h270v-1128h-203l-33 104q-197 -135 -385 -135q-205 0 -282.5 107.5t-77.5 310.5zM293 1693h289l199 -432h-209z" />
<glyph unicode="&#xfa;" horiz-adv-x="1325" d="M168 0zM168 387v741h270v-710q0 -135 37 -190.5t135 -55.5q127 0 269 107v849h270v-1128h-203l-33 104q-197 -135 -385 -135q-205 0 -282.5 107.5t-77.5 310.5zM526 1261l199 434h289l-279 -434h-209z" />
<glyph unicode="&#xfb;" horiz-adv-x="1325" d="M168 0zM168 387v741h270v-710q0 -135 37 -190.5t135 -55.5q127 0 269 107v849h270v-1128h-203l-33 104q-197 -135 -385 -135q-205 0 -282.5 107.5t-77.5 310.5zM295 1261l227 430h266l227 -430h-208l-152 258l-152 -258h-208z" />
<glyph unicode="&#xfc;" horiz-adv-x="1325" d="M168 0zM168 387v741h270v-710q0 -135 37 -190.5t135 -55.5q127 0 269 107v849h270v-1128h-203l-33 104q-197 -135 -385 -135q-205 0 -282.5 107.5t-77.5 310.5zM270 1522q0 61 45 105t104 44t104.5 -44t45.5 -105q0 -59 -45 -103.5t-105 -44.5q-59 0 -104 44t-45 104z M743 1522q0 61 45 105t105 44q59 0 104 -44t45 -105q0 -59 -45 -103.5t-104 -44.5q-60 0 -105 44t-45 104z" />
<glyph unicode="&#xfd;" horiz-adv-x="1204" d="M29 0zM29 -481l22 202q90 -29 156 -28q102 0 173 55t128 189l-461 1191h277l299 -856l288 856h273l-484 -1280q-70 -193 -185.5 -277.5t-281.5 -84.5q-119 0 -204 33zM489 1261l199 434h289l-279 -434h-209z" />
<glyph unicode="&#xfe;" horiz-adv-x="1329" d="M178 -479v2117h271v-567q133 88 290 88q148 0 261.5 -67.5t177 -198.5t63.5 -315q0 -205 -73.5 -341.5t-197.5 -202t-278 -65.5q-131 0 -243 64v-512h-271zM449 229q98 -61 215 -61q303 0 303 410q0 205 -73 292.5t-181 87.5q-78 0 -139.5 -19t-124.5 -62v-648z" />
<glyph unicode="&#xff;" horiz-adv-x="1204" d="M29 0zM29 -481l22 202q90 -29 156 -28q102 0 173 55t128 189l-461 1191h277l299 -856l288 856h273l-484 -1280q-70 -193 -185.5 -277.5t-281.5 -84.5q-119 0 -204 33zM233 1522q0 61 45 105t104 44t104.5 -44t45.5 -105q0 -59 -45 -103.5t-105 -44.5q-59 0 -104 44 t-45 104zM706 1522q0 61 45 105t105 44q59 0 104 -44t45 -105q0 -59 -45 -103.5t-104 -44.5q-60 0 -105 44t-45 104z" />
<glyph unicode="&#x152;" horiz-adv-x="2072" d="M102 694q0 203 81 361.5t240 248t386 89.5h1112v-199h-580v-358h498v-199h-498v-438h621v-199h-1153q-225 0 -385 90t-241 248t-81 356zM381 696q0 -223 112.5 -359t315.5 -136h254v991h-254q-203 0 -315.5 -134t-112.5 -362z" />
<glyph unicode="&#x153;" horiz-adv-x="2064" d="M90 563q0 172 64.5 306.5t193.5 212t311 77.5q139 0 246 -48t180 -136q72 88 181.5 136t255.5 48q211 0 330.5 -117.5t121.5 -330.5q0 -68 -22 -152h-731q2 -188 75.5 -289.5t227.5 -101.5q98 0 179 39t173 115l82 -170q-98 -90 -201.5 -136.5t-234.5 -46.5 q-285 0 -439 185q-72 -88 -178 -136.5t-246 -48.5q-184 0 -313 79t-192.5 213t-63.5 302zM362 565q0 -190 73 -293.5t222 -103.5q150 0 222.5 103.5t72.5 293.5q0 188 -73.5 292t-221.5 104q-147 0 -221 -103.5t-74 -292.5zM1239 741h471v25q0 100 -56.5 154.5t-144.5 54.5 q-108 0 -175.5 -62.5t-94.5 -171.5z" />
<glyph unicode="&#x178;" horiz-adv-x="1370" d="M33 0zM33 1393h297l356 -627l361 627h292l-514 -828v-565h-278v559zM311 1681q0 57 41 98.5t96 41.5q57 0 98.5 -41t41.5 -99q0 -55 -41 -96t-99 -41q-55 0 -96 41t-41 96zM784 1681q0 57 41 98.5t97 41.5q57 0 98 -41t41 -99q0 -55 -41 -96t-98 -41q-56 0 -97 41t-41 96 z" />
<glyph unicode="&#x2c6;" horiz-adv-x="1024" d="M152 1208l227 430h266l227 -430h-208l-152 258l-152 -258h-208z" />
<glyph unicode="&#x2dc;" horiz-adv-x="1024" d="M135 1286q10 154 72.5 240t159.5 86q45 0 80.5 -18.5t80.5 -53.5q39 -29 63.5 -42t53.5 -13q33 0 54.5 32.5t37.5 108.5l152 -8q-10 -145 -72.5 -236.5t-157.5 -91.5q-49 0 -86.5 19.5t-87.5 54.5q-35 27 -58.5 40t-47.5 13q-35 0 -55.5 -32.5t-34.5 -106.5z" />
<glyph unicode="&#x2000;" horiz-adv-x="953" />
<glyph unicode="&#x2001;" horiz-adv-x="1907" />
<glyph unicode="&#x2002;" horiz-adv-x="953" />
<glyph unicode="&#x2003;" horiz-adv-x="1907" />
<glyph unicode="&#x2004;" horiz-adv-x="635" />
<glyph unicode="&#x2005;" horiz-adv-x="476" />
<glyph unicode="&#x2006;" horiz-adv-x="317" />
<glyph unicode="&#x2007;" horiz-adv-x="317" />
<glyph unicode="&#x2008;" horiz-adv-x="238" />
<glyph unicode="&#x2009;" horiz-adv-x="381" />
<glyph unicode="&#x200a;" horiz-adv-x="105" />
<glyph unicode="&#x2010;" horiz-adv-x="577" d="M41 481v195h496v-195h-496z" />
<glyph unicode="&#x2011;" horiz-adv-x="577" d="M41 481v195h496v-195h-496z" />
<glyph unicode="&#x2012;" horiz-adv-x="577" d="M41 481v195h496v-195h-496z" />
<glyph unicode="&#x2013;" horiz-adv-x="1024" d="M0 481v195h1024v-195h-1024z" />
<glyph unicode="&#x2014;" horiz-adv-x="2048" d="M256 481v195h1536v-195h-1536z" />
<glyph unicode="&#x2018;" horiz-adv-x="645" d="M172 1073q0 309 299 467l88 -115q-121 -88 -121 -276q0 -117 45 -240l-282 -39q-29 115 -29 203z" />
<glyph unicode="&#x2019;" horiz-adv-x="645" d="M88 985q61 45 91 117t30 160q0 109 -45 239l280 39q29 -106 29 -207q0 -307 -297 -463z" />
<glyph unicode="&#x201a;" horiz-adv-x="645" d="M88 0zM88 -240q61 45 91 117t30 160q0 109 -45 239l280 39q29 -106 29 -206q0 -307 -297 -463z" />
<glyph unicode="&#x201c;" horiz-adv-x="1150" d="M172 870zM172 1073q0 309 299 467l88 -115q-121 -88 -121 -276q0 -117 45 -240l-282 -39q-29 115 -29 203zM676 1073q0 309 299 467l88 -115q-121 -88 -121 -276q0 -117 45 -240l-282 -39q-29 115 -29 203z" />
<glyph unicode="&#x201d;" horiz-adv-x="1150" d="M88 870zM88 985q61 45 91 117t30 160q0 109 -45 239l280 39q29 -106 29 -207q0 -307 -297 -463zM592 985q61 45 91 117t30 160q0 109 -45 239l280 39q29 -106 29 -207q0 -307 -297 -463z" />
<glyph unicode="&#x201e;" horiz-adv-x="1150" d="M88 0zM88 -240q61 45 91 117t30 160q0 109 -45 239l280 39q29 -106 29 -206q0 -307 -297 -463zM592 -240q61 45 91 117t30 160q0 109 -45 239l280 39q29 -106 29 -206q0 -307 -297 -463z" />
<glyph unicode="&#x2022;" horiz-adv-x="1122" d="M279 575q0 76 37.5 141.5t102 103.5t140.5 38q78 0 143.5 -38t103.5 -103.5t38 -141.5t-38 -141t-103.5 -103t-143.5 -38q-76 0 -140.5 38t-102 103.5t-37.5 140.5z" />
<glyph unicode="&#x2026;" horiz-adv-x="1865" d="M154 154q0 72 50 121t120 49q72 0 121 -49.5t49 -120.5q0 -70 -50.5 -119t-119.5 -49q-70 0 -120 49t-50 119zM762 154q0 72 50 121t120 49q72 0 121 -49.5t49 -120.5q0 -70 -50.5 -119t-119.5 -49q-70 0 -120 49t-50 119zM1372 154q0 72 50.5 121t119.5 49 q72 0 121 -49.5t49 -120.5q0 -70 -50 -119t-120 -49q-69 0 -119.5 49t-50.5 119z" />
<glyph unicode="&#x202f;" horiz-adv-x="381" />
<glyph unicode="&#x2039;" horiz-adv-x="714" d="M94 530l342 433l189 -140l-238 -293l238 -294l-189 -138z" />
<glyph unicode="&#x203a;" horiz-adv-x="714" d="M90 238l238 292l-238 295l189 138l342 -433l-342 -432z" />
<glyph unicode="&#x205f;" horiz-adv-x="476" />
<glyph unicode="&#x20ac;" d="M111 442v197h159q-2 20 -2 66q0 39 2 57h-159v196h182q45 215 176 337t342 122q188 0 324 -104l-72 -189q-94 88 -213 88q-217 0 -279 -254h406v-196h-428q-2 -18 -2 -60q0 -43 2 -63h428v-197h-406q63 -266 279 -266q66 0 117 22.5t100 65.5l70 -182 q-129 -109 -326 -109q-211 0 -341 124t-177 345h-182z" />
<glyph unicode="&#x2122;" horiz-adv-x="1753" d="M82 1290v129h557v-129h-180v-563h-195v563h-182zM748 727v692h198l182 -284l181 284h200v-692h-194v180l10 260l-137 -219h-119l-137 221l10 -262v-180h-194z" />
<glyph unicode="&#x25fc;" horiz-adv-x="1126" d="M0 0v1126h1126v-1126h-1126z" />
<glyph unicode="&#xfb03;" horiz-adv-x="2369" d="M74 0zM74 934v115l174 59v92q0 217 105.5 333t318.5 116q74 0 178 -17l-23 -194q-68 10 -116 10q-100 0 -146.5 -63.5t-46.5 -188.5v-68h328v-194h-328v-934h-270v934h-174zM940 934v115l174 59v92q0 217 105.5 333t318.5 116q74 0 178 -17l-23 -194q-68 10 -116 10 q-100 0 -146.5 -63.5t-46.5 -188.5v-68h328v-194h-328v-934h-270v934h-174zM1891 1536q0 66 47 113t112 47q68 0 115 -47t47 -113t-47 -113t-115 -47q-65 0 -112 47t-47 113zM1917 0v1128h271v-1128h-271z" />
<glyph unicode="&#xfb04;" horiz-adv-x="2357" d="M74 0zM74 934v115l174 59v92q0 217 105.5 333t318.5 116q74 0 178 -17l-23 -194q-68 10 -116 10q-100 0 -146.5 -63.5t-46.5 -188.5v-68h328v-194h-328v-934h-270v934h-174zM940 934v115l174 59v92q0 217 105.5 333t318.5 116q74 0 178 -17l-23 -194q-68 10 -116 10 q-100 0 -146.5 -63.5t-46.5 -188.5v-68h328v-194h-328v-934h-270v934h-174zM1911 0v1638h271v-1638h-271z" />
</font>
</defs>
</svg>
